<svg width="130" height="38" viewBox="0 0 130 38" fill="none" xmlns="http://www.w3.org/2000/svg"><path d="M55 25L79 25L79 1L55 1L55 25Z" fill="#FF0013"></path><path d="M79 1H67V13H79V1Z" fill="#FF8E78"></path><path d="M55.0005 25L67.0005 25L67.0005 13L55.0005 13L55.0005 25Z" fill="#CC0019"></path><path d="M5.74971 25H14.7086V23.3954C14.7086 16.2083 18.5863 11.1271 24.0017 7.51683V1.76711H0V7.81769H16.1794C9.15943 12.0297 5.74971 17.8128 5.74971 24.3648V25Z" fill="white"></path><path d="M25.0124 25H51.1201V18.9828H36.9798C40.2224 18.1471 43.465 17.1108 45.805 15.8405C49.3484 14.002 50.7858 12.1968 50.7858 8.92083C50.7858 3.5054 45.5375 1.26569 38.2167 1.26569C30.829 1.26569 25.0793 4.10712 25.0793 9.32197C25.0793 9.72311 25.1127 10.024 25.1461 10.3917L33.6704 11.1271C33.637 10.7594 33.637 10.5588 33.637 10.3917C33.637 8.15197 35.3084 7.0154 37.9827 7.0154C40.5233 7.0154 41.9273 8.15197 41.9273 9.68969C41.9273 11.428 41.0581 12.6648 37.9158 14.236C34.6398 15.7737 29.4918 18.0803 25.0124 19.7517V25Z" fill="white"></path><path d="M99.7143 25H103.525L97.04 14.8043C101.219 13.9352 102.689 10.8932 102.689 8.21889C102.689 4.87603 100.918 1.26575 94.5997 1.26575H83V25H86.276V15.2389H93.4631L99.7143 25ZM86.276 4.00689H94.1317C98.0094 4.00689 99.2463 5.97918 99.2463 8.21889C99.2463 10.4586 98.0094 12.5312 94.0983 12.5312H86.276V4.00689Z" fill="white"></path><path d="M106.672 1.26575V15.6066C106.672 21.49 110.55 25.6686 117.57 25.6686C124.556 25.6686 128.468 21.49 128.468 15.6066V1.26575H125.158V15.4395C125.158 19.6849 122.417 22.8272 117.57 22.8272C112.723 22.8272 109.948 19.6849 109.948 15.4395V1.26575H106.672Z" fill="white"></path><path d="M3.59214 36V31.024L3.84014 31.28H1.74414V30.4H6.48014V31.28H4.38414L4.62414 31.024V36H3.59214Z" fill="white"></path><path d="M7.78508 36V30.4H8.80908V32.696H10.2571V33.624H8.80908V36H7.78508ZM12.5691 36.08C12.1531 36.08 11.7691 36.008 11.4171 35.864C11.0651 35.72 10.7584 35.52 10.4971 35.264C10.2357 35.008 10.0304 34.704 9.88108 34.352C9.73708 34 9.66508 33.616 9.66508 33.2C9.66508 32.784 9.73708 32.4 9.88108 32.048C10.0304 31.696 10.2357 31.392 10.4971 31.136C10.7584 30.88 11.0651 30.68 11.4171 30.536C11.7691 30.392 12.1531 30.32 12.5691 30.32C12.9797 30.32 13.3611 30.392 13.7131 30.536C14.0704 30.68 14.3797 30.88 14.6411 31.136C14.9024 31.392 15.1051 31.696 15.2491 32.048C15.3931 32.4 15.4651 32.784 15.4651 33.2C15.4651 33.616 15.3931 34 15.2491 34.352C15.1051 34.704 14.9024 35.008 14.6411 35.264C14.3797 35.52 14.0704 35.72 13.7131 35.864C13.3611 36.008 12.9797 36.08 12.5691 36.08ZM12.5691 35.168C12.8304 35.168 13.0731 35.12 13.2971 35.024C13.5264 34.928 13.7237 34.792 13.8891 34.616C14.0544 34.44 14.1824 34.2347 14.2731 34C14.3691 33.76 14.4171 33.4933 14.4171 33.2C14.4171 32.9067 14.3691 32.6427 14.2731 32.408C14.1824 32.168 14.0544 31.96 13.8891 31.784C13.7237 31.608 13.5264 31.472 13.2971 31.376C13.0731 31.28 12.8304 31.232 12.5691 31.232C12.3077 31.232 12.0651 31.28 11.8411 31.376C11.6171 31.472 11.4197 31.608 11.2491 31.784C11.0837 31.96 10.9531 32.168 10.8571 32.408C10.7664 32.6427 10.7211 32.9067 10.7211 33.2C10.7211 33.4933 10.7664 33.76 10.8571 34C10.9531 34.2347 11.0837 34.44 11.2491 34.616C11.4197 34.792 11.6171 34.928 11.8411 35.024C12.0651 35.12 12.3077 35.168 12.5691 35.168Z" fill="white"></path><path d="M17.0366 36V30.4H17.8846L20.3406 34.488H19.8846L22.3006 30.4H23.1486L23.1646 36H22.1726L22.1646 31.944H22.3726L20.3246 35.36H19.8606L17.7806 31.944H18.0206V36H17.0366Z" fill="white"></path><path d="M26.0918 32.728H28.8758V33.584H26.0918V32.728ZM26.1718 35.128H29.3318V36H25.1318V30.4H29.2198V31.272H26.1718V35.128Z" fill="white"></path><path d="M34.8271 30.4H35.8671V36H34.8271V30.4ZM31.9311 36H30.8911V30.4H31.9311V36ZM34.9071 33.6H31.8431V32.712H34.9071V33.6Z" fill="white"></path><path d="M40.422 32.296C41.0887 32.296 41.6033 32.4453 41.966 32.744C42.3287 33.0427 42.51 33.4907 42.51 34.088C42.51 34.7173 42.31 35.1947 41.91 35.52C41.5153 35.84 40.9634 36 40.254 36H37.846V30.4H38.87V32.296H40.422ZM40.206 35.2C40.606 35.2 40.9154 35.1067 41.134 34.92C41.358 34.7333 41.47 34.4613 41.47 34.104C41.47 33.752 41.3607 33.496 41.142 33.336C40.9234 33.1707 40.6113 33.088 40.206 33.088H38.87V35.2H40.206Z" fill="white"></path><path d="M49.1833 36.08C48.746 36.08 48.3433 36.008 47.9753 35.864C47.6073 35.72 47.2873 35.52 47.0153 35.264C46.7433 35.0027 46.5327 34.6987 46.3833 34.352C46.234 34 46.1593 33.616 46.1593 33.2C46.1593 32.784 46.234 32.4027 46.3833 32.056C46.5327 31.704 46.7433 31.4 47.0153 31.144C47.2873 30.8827 47.6073 30.68 47.9753 30.536C48.3433 30.392 48.7433 30.32 49.1753 30.32C49.6127 30.32 50.0127 30.392 50.3753 30.536C50.7433 30.68 51.0633 30.8827 51.3353 31.144C51.6073 31.4 51.818 31.704 51.9673 32.056C52.1167 32.4027 52.1913 32.784 52.1913 33.2C52.1913 33.616 52.1167 34 51.9673 34.352C51.818 34.704 51.6073 35.008 51.3353 35.264C51.0633 35.52 50.7433 35.72 50.3753 35.864C50.0127 36.008 49.6153 36.08 49.1833 36.08ZM49.1753 35.168C49.458 35.168 49.7193 35.12 49.9593 35.024C50.1993 34.928 50.4073 34.792 50.5833 34.616C50.7593 34.4347 50.8953 34.2267 50.9913 33.992C51.0927 33.752 51.1433 33.488 51.1433 33.2C51.1433 32.912 51.0927 32.6507 50.9913 32.416C50.8953 32.176 50.7593 31.968 50.5833 31.792C50.4073 31.6107 50.1993 31.472 49.9593 31.376C49.7193 31.28 49.458 31.232 49.1753 31.232C48.8927 31.232 48.6313 31.28 48.3913 31.376C48.1567 31.472 47.9487 31.6107 47.7673 31.792C47.5913 31.968 47.4527 32.176 47.3513 32.416C47.2553 32.6507 47.2073 32.912 47.2073 33.2C47.2073 33.4827 47.2553 33.744 47.3513 33.984C47.4527 34.224 47.5913 34.4347 47.7673 34.616C47.9433 34.792 48.1513 34.928 48.3913 35.024C48.6313 35.12 48.8927 35.168 49.1753 35.168Z" fill="white"></path><path d="M57.6771 30.4H58.7171V36H57.6771V30.4ZM54.7811 36H53.7411V30.4H54.7811V36ZM57.7571 33.6H54.6931V32.712H57.7571V33.6Z" fill="white"></path><path d="M60.5293 36.08C60.4387 36.08 60.348 36.072 60.2573 36.056C60.1667 36.04 60.068 36.0213 59.9613 36L60.0333 35.096C60.108 35.1173 60.188 35.128 60.2733 35.128C60.4973 35.128 60.676 35.0373 60.8093 34.856C60.9427 34.6693 61.0387 34.3973 61.0973 34.04C61.156 33.6827 61.196 33.2427 61.2173 32.72L61.2973 30.4H65.4173V36H64.3933V31.024L64.6333 31.28H61.9693L62.1933 31.016L62.1373 32.68C62.1213 33.2347 62.084 33.7227 62.0253 34.144C61.9667 34.5653 61.876 34.92 61.7533 35.208C61.636 35.4907 61.4787 35.7067 61.2813 35.856C61.084 36.0053 60.8333 36.08 60.5293 36.08Z" fill="white"></path><path d="M66.6807 36L69.2007 30.4H70.2247L72.7527 36H71.6647L69.4967 30.952H69.9127L67.7527 36H66.6807ZM67.8407 34.704L68.1207 33.888H71.1447L71.4247 34.704H67.8407Z" fill="white"></path><path d="M74.0195 36V30.4H75.0435V34.376L78.0515 30.4H79.0195V36H77.9955V32.032L74.9875 36H74.0195ZM76.5075 30.024C76.0275 30.024 75.6648 29.9227 75.4195 29.72C75.1795 29.5173 75.0568 29.232 75.0515 28.864H75.7795C75.7848 29.0613 75.8488 29.2133 75.9715 29.32C76.0995 29.4267 76.2781 29.48 76.5075 29.48C76.7368 29.48 76.9155 29.4267 77.0435 29.32C77.1768 29.2133 77.2461 29.0613 77.2515 28.864H77.9715C77.9661 29.232 77.8408 29.5173 77.5955 29.72C77.3501 29.9227 76.9875 30.024 76.5075 30.024Z" fill="white"></path><path d="M84.9256 30.4H85.9656V36H84.9256V30.4ZM82.0296 36H80.9896V30.4H82.0296V36ZM85.0056 33.6H81.9416V32.712H85.0056V33.6Z" fill="white"></path></svg>